<svg xmlns="http://www.w3.org/2000/svg" version="1.1" viewBox="0 0 32 32" width="32" height="32">
  <g id="surface1">
    <path style=" stroke:none;fill-rule:nonzero;fill:rgb(14.901961%,14.901961%,15.294118%);fill-opacity:1;" d="M 11.160156 12.460938 L 11.160156 10.765625 L 20.742188 10.765625 L 20.742188 12.460938 L 16.90625 12.460938 L 16.90625 22.175781 L 14.996094 22.175781 L 14.996094 12.460938 Z M 11.160156 12.460938 "/>
    <path style="fill:none;stroke-width:0.5;stroke-linecap:butt;stroke-linejoin:miter;stroke:rgb(14.901961%,14.901961%,15.294118%);stroke-opacity:1;stroke-miterlimit:4;" d="M 19.265625 35.499023 C 23.80957 35.402344 26.666016 32.506348 29.913574 29.021484 C 33.161133 25.541016 35.525391 22.803223 35.499023 18.079102 C 35.472656 13.350586 33.240234 8.898926 29.777344 5.383301 C 26.314453 1.87207 22.675781 0.391113 18.180176 0.505371 C 13.688965 0.624023 10.836914 2.90918 7.299316 5.972168 C 3.766113 9.030762 0.518555 11.10498 0.500977 15.815918 C 0.479004 20.522461 3.454102 25.567383 7.207031 29.504883 C 10.959961 33.442383 14.726074 35.595703 19.265625 35.499023 Z M 19.265625 35.499023 " transform="matrix(0.888889,0,0,0.888889,0,0)"/>
  </g>
</svg>
