<?xml version="1.0" encoding="UTF-8" standalone="no"?>
<!DOCTYPE svg PUBLIC "-//W3C//DTD SVG 1.1//EN" "http://www.w3.org/Graphics/SVG/1.1/DTD/svg11.dtd">
<svg width="100%" height="100%" viewBox="0 0 16 16" version="1.1" xmlns="http://www.w3.org/2000/svg" xmlns:xlink="http://www.w3.org/1999/xlink" xml:space="preserve" xmlns:serif="http://www.serif.com/" style="fill-rule:evenodd;clip-rule:evenodd;">
    <g id="surface1" transform="matrix(0.482165,0,0,0.482165,0.285337,0.285059)">
        <path d="M11.16,12.461L11.16,10.766L20.742,10.766L20.742,12.461L16.906,12.461L16.906,22.176L14.996,22.176L14.996,12.461L11.16,12.461Z" style="fill:rgb(38,38,39);fill-rule:nonzero;"/>
        <g transform="matrix(0.888889,0,0,0.888889,0,0)">
            <path d="M19.266,35.499C23.81,35.402 26.666,32.506 29.914,29.021C33.161,25.541 35.525,22.803 35.499,18.079C35.473,13.351 33.24,8.899 29.777,5.383C26.314,1.872 22.676,0.391 18.18,0.505C13.689,0.624 10.837,2.909 7.299,5.972C3.766,9.031 0.519,11.105 0.501,15.816C0.479,20.522 3.454,25.567 7.207,29.505C10.96,33.442 14.726,35.596 19.266,35.499Z" style="fill:none;fill-rule:nonzero;stroke:rgb(38,38,39);stroke-width:0.5px;"/>
        </g>
    </g>
</svg>
