<?xml version="1.0" encoding="UTF-8" standalone="no"?>
<!DOCTYPE svg PUBLIC "-//W3C//DTD SVG 1.1//EN" "http://www.w3.org/Graphics/SVG/1.1/DTD/svg11.dtd">
<svg xmlns="http://www.w3.org/2000/svg" width="100%" height="100%" viewBox="0 0 43 24" fill="none" preserveAspectRatio="xMidYMid meet">
  <path fill-rule="evenodd" clip-rule="evenodd" d="M0 5.42456C0 1.8517 1.40765 0 3.78009 0C6.15215 0 7.56018 1.8517 7.56018 5.42456V16.2479C7.56018 19.8208 6.15252 21.6725 3.78009 21.6725C1.40765 21.6725 0 19.8208 0 16.2479V5.42456ZM25.4643 0H17.6512C10.6419 0 10.0894 3.027 10.0894 7.06301L10.0802 14.599C10.0802 18.8069 10.6082 21.6725 17.6784 21.6725H25.4643C32.4961 21.6725 33.0128 18.656 33.0128 14.62V7.07352C33.0128 3.027 32.4736 0 25.4643 0Z" fill="currentColor"></path>
</svg>
